<svg width="217" height="69" viewBox="0 0 217 69" fill="none" xmlns="http://www.w3.org/2000/svg">
<path d="M75.0801 19.76C75.0801 27.28 73.4534 35.6 70.2001 44.72C71.5868 47.7067 73.3734 49.2 75.5601 49.2C75.2934 50.2667 74.4134 50.8 72.9201 50.8C71.4268 50.8 70.0134 50.08 68.6801 48.64C66.4934 53.92 63.9601 58.1867 61.0801 61.44C58.2534 64.64 55.2668 66.24 52.1201 66.24C48.0135 66.24 45.1068 63.68 43.4001 58.56C38.7068 64.6933 34.1468 67.76 29.7201 67.76C22.9468 67.76 19.5601 64.1867 19.5601 57.04C19.5601 51.76 21.3468 44.72 24.9201 35.92C26.2001 32.72 27.4001 29.12 28.5201 25.12C29.6401 21.0667 30.2001 17.3333 30.2001 13.92C30.2001 10.5067 29.2134 7.76002 27.2401 5.68002C25.2668 3.60001 22.5468 2.56001 19.0801 2.56001C13.7468 2.56001 9.40012 5.28001 6.04012 10.72C3.42678 15.04 2.12012 19.6 2.12012 24.4C2.12012 30.48 3.90678 34.3467 7.48012 36C8.54678 36.48 9.69345 36.72 10.9201 36.72C15.0268 36.72 18.1468 34.4267 20.2801 29.84C20.3868 29.6267 20.5468 29.52 20.7601 29.52C21.0268 29.4667 21.2401 29.52 21.4001 29.68C21.6134 29.84 21.6668 30.0267 21.5601 30.24C20.5468 32.7467 19.1334 34.7733 17.3201 36.32C15.5068 37.8133 13.3734 38.56 10.9201 38.56C6.12012 38.56 2.86678 36.1333 1.16012 31.28C0.466784 29.2 0.120117 26.8533 0.120117 24.24C0.120117 21.6267 0.680117 18.6933 1.80012 15.44C3.88012 9.30668 7.21345 4.98668 11.8001 2.48001C14.0935 1.25335 16.5201 0.640015 19.0801 0.640015C23.9868 0.640015 27.7468 2.32001 30.3601 5.68002C32.9734 8.98668 34.2801 13.3867 34.2801 18.88C34.2801 22.88 33.4801 27.52 31.8801 32.8C30.2801 38.08 28.6801 43.1467 27.0801 48C25.4801 52.8533 24.6801 56.5067 24.6801 58.96C24.6801 61.4133 25.0268 63.1733 25.7201 64.24C26.4668 65.2533 27.7734 65.76 29.6401 65.76C33.8534 65.76 38.2001 62.5067 42.6801 56C42.2535 53.1733 42.0401 50.4533 42.0401 47.84C42.0401 39.3067 43.4801 32 46.3601 25.92C48.4401 21.6533 50.6534 19.52 53.0001 19.52C55.0801 19.52 56.1201 21.36 56.1201 25.04C56.1201 28.72 55.2668 33.1467 53.5601 38.32C51.8535 43.4933 49.6401 48.4267 46.9201 53.12C47.5601 60.4267 49.5868 64.08 53.0001 64.08C58.1201 64.08 62.8668 58.32 67.2401 46.8C64.7868 42.6933 63.5601 36.88 63.5601 29.36C63.5601 24.9333 64.1201 20.88 65.2401 17.2C66.6268 12.56 68.6001 10.24 71.1601 10.24C73.7734 10.24 75.0801 13.4133 75.0801 19.76ZM73.0001 19.2C73.0001 14.9333 72.2801 12.8 70.8401 12.8C69.7734 12.8 68.9201 14.3467 68.2801 17.44C67.6934 20.48 67.4001 23.0933 67.4001 25.28C67.4001 32.32 67.9334 37.76 69.0001 41.6C71.6668 32.9067 73.0001 25.44 73.0001 19.2ZM46.6801 48.4C46.6801 48.6667 46.6801 48.9067 46.6801 49.12C48.7601 45.12 50.4935 40.96 51.8801 36.64C53.3735 31.9467 54.1201 28.4267 54.1201 26.08C54.1201 23.68 53.6134 22.3467 52.6001 22.08C51.2134 22.08 49.8801 25.04 48.6001 30.96C47.3201 36.8267 46.6801 42.64 46.6801 48.4Z" fill="black"/>
<path d="M92.6109 18.08C93.8376 18.08 94.4509 18.9067 94.4509 20.56C94.4509 22.2133 93.6509 23.5467 92.0509 24.56C91.2509 25.0933 90.5576 25.36 89.9709 25.36C89.1176 25.36 88.6109 25.0933 88.4509 24.56L88.3709 24.32C88.8509 24.32 89.1976 23.8133 89.4109 22.8C89.6242 21.7333 89.9442 20.6933 90.3709 19.68C90.8509 18.6133 91.5976 18.08 92.6109 18.08ZM87.4909 64.08C88.8776 64.08 90.8242 62.24 93.3309 58.56C95.8376 54.88 97.9976 51.2 99.8109 47.52L102.531 42H104.691C104.371 42.64 103.944 43.52 103.411 44.64C102.931 45.7067 101.944 47.6533 100.451 50.48C98.9576 53.2533 97.5176 55.7067 96.1309 57.84C94.7976 59.9733 93.2776 61.92 91.5709 63.68C89.9176 65.3867 88.4776 66.24 87.2509 66.24C83.3042 66.24 81.3309 63.68 81.3309 58.56C81.3309 54.72 82.4242 48.48 84.6109 39.84C84.8242 38.9333 84.9842 38.24 85.0909 37.76C85.2509 37.28 85.4109 36.6667 85.5709 35.92C85.7309 35.12 85.8909 34.4 86.0509 33.76C86.3176 32.64 86.7976 32.08 87.4909 32.08C88.4509 32.08 89.1442 32.7733 89.5709 34.16C89.7842 34.8 89.8909 35.5733 89.8909 36.48C89.8909 37.3867 89.7842 38.3467 89.5709 39.36C89.3576 40.32 89.0109 41.76 88.5309 43.68C88.0509 45.6 87.6776 47.1733 87.4109 48.4C87.1442 49.6267 86.8509 51.12 86.5309 52.88C85.9442 55.8133 85.6509 58.4267 85.6509 60.72C85.6509 62.96 86.2642 64.08 87.4909 64.08Z" fill="black"/>
<path d="M101.21 66C99.7169 66 98.9703 64.8533 98.9703 62.56C98.9703 61.3333 100.464 52.4 103.45 35.76C103.61 34.64 104.09 34.08 104.89 34.08C105.85 34.08 106.57 34.7733 107.05 36.16C107.317 36.9067 107.45 37.7333 107.45 38.64C107.45 39.4933 107.344 40.4267 107.13 41.44L105.85 47.84H106.33C111.13 37.0667 115.717 31.68 120.09 31.68C121.797 31.68 123.104 32.2133 124.01 33.28C124.917 34.2933 125.37 35.7067 125.37 37.52C125.37 39.3333 124.65 43.2533 123.21 49.28C121.77 55.3067 121.05 59.4933 121.05 61.84C121.05 65.3067 121.69 67.04 122.97 67.04C122.97 67.4133 122.73 67.7867 122.25 68.16C121.77 68.5334 121.21 68.72 120.57 68.72C117.477 68.72 115.93 66.2933 115.93 61.44C115.93 58.4533 116.73 53.9467 118.33 47.92C119.984 41.84 120.81 37.9733 120.81 36.32C120.81 34.6133 120.144 33.76 118.81 33.76C116.89 33.76 114.57 36.2667 111.85 41.28C109.184 46.2933 107.024 51.0933 105.37 55.68C103.77 60.2133 102.837 63.0667 102.57 64.24C102.357 65.4133 101.904 66 101.21 66Z" fill="black"/>
<path d="M133.73 66C132.236 66 131.49 64.8533 131.49 62.56C131.49 61.3333 132.983 52.4 135.97 35.76C136.13 34.64 136.61 34.08 137.41 34.08C138.37 34.08 139.09 34.7733 139.57 36.16C139.836 36.9067 139.97 37.7333 139.97 38.64C139.97 39.4933 139.863 40.4267 139.65 41.44L138.37 47.84H138.85C143.65 37.0667 148.236 31.68 152.61 31.68C154.316 31.68 155.623 32.2133 156.53 33.28C157.436 34.2933 157.89 35.7067 157.89 37.52C157.89 39.3333 157.17 43.2533 155.73 49.28C154.29 55.3067 153.57 59.4933 153.57 61.84C153.57 65.3067 154.21 67.04 155.49 67.04C155.49 67.4133 155.25 67.7867 154.77 68.16C154.29 68.5334 153.73 68.72 153.09 68.72C149.996 68.72 148.45 66.2933 148.45 61.44C148.45 58.4533 149.25 53.9467 150.85 47.92C152.503 41.84 153.33 37.9733 153.33 36.32C153.33 34.6133 152.663 33.76 151.33 33.76C149.41 33.76 147.09 36.2667 144.37 41.28C141.703 46.2933 139.543 51.0933 137.89 55.68C136.29 60.2133 135.356 63.0667 135.09 64.24C134.876 65.4133 134.423 66 133.73 66Z" fill="black"/>
<path d="M169.449 54.32C169.449 60.7733 171.743 64 176.329 64C178.036 64 179.823 63.2533 181.689 61.76C183.609 60.2133 185.343 58.3733 186.889 56.24C190.303 51.3333 192.703 47.3333 194.089 44.24L195.129 42H197.289C196.383 44.1333 195.049 46.7733 193.289 49.92C191.529 53.0133 189.849 55.6267 188.249 57.76C186.649 59.8933 184.756 61.84 182.569 63.6C180.383 65.3067 178.303 66.16 176.329 66.16C168.436 66.16 164.489 61.7333 164.489 52.88C164.489 48.7733 165.689 44.6667 168.089 40.56C171.396 34.8533 175.476 32 180.329 32C183.743 32 185.449 33.8667 185.449 37.6C185.449 40.3733 184.383 43.2533 182.249 46.24C179.263 50.2933 175.769 52.3467 171.769 52.4C171.183 52.4 170.809 52.1333 170.649 51.6L170.569 51.28C173.343 51.28 175.983 49.4667 178.489 45.84C181.049 42.16 182.329 39.0933 182.329 36.64C182.329 34.9867 181.689 34.16 180.409 34.16C177.583 34.16 174.943 36.64 172.489 41.6C170.463 45.8133 169.449 50.0533 169.449 54.32Z" fill="black"/>
<path d="M193.966 66C192.473 66 191.726 64.8533 191.726 62.56C191.726 61.3333 193.219 52.4 196.206 35.76C196.419 34.64 196.899 34.08 197.646 34.08C198.606 34.08 199.326 34.7733 199.806 36.16C200.073 36.9067 200.206 37.7333 200.206 38.64C200.206 39.4933 200.099 40.4267 199.886 41.44L198.606 48H199.006C203.593 37.3333 207.806 32 211.646 32C213.779 32 215.193 33.04 215.886 35.12C216.153 35.92 216.286 36.8533 216.286 37.92C216.286 38.9333 215.993 40.0533 215.406 41.28C214.393 43.36 212.873 44.4 210.846 44.4C210.419 44.4 210.073 44.2933 209.806 44.08C209.593 43.8667 209.459 43.5733 209.406 43.2C209.833 43.2 210.393 42.4267 211.086 40.88C211.779 39.28 212.179 37.8133 212.286 36.48C212.393 35.1467 211.939 34.3733 210.926 34.16C209.059 34.16 206.846 36.5867 204.286 41.44C201.726 46.2933 199.673 50.9333 198.126 55.36C196.579 59.7867 195.673 62.6667 195.406 64C195.139 65.3333 194.659 66 193.966 66Z" fill="black"/>
</svg>
